<svg width="24" height="24" viewBox="0 0 24 24" fill="none" xmlns="http://www.w3.org/2000/svg">
<mask id="mask0_862_435" style="mask-type:alpha" maskUnits="userSpaceOnUse" x="0" y="0" width="24" height="24">
<rect width="24" height="24" fill="#D9D9D9"/>
</mask>
<g mask="url(#mask0_862_435)">
<path d="M11 19.475L6 16.6C5.68333 16.4167 5.4375 16.175 5.2625 15.875C5.0875 15.575 5 15.2417 5 14.875V9.125C5 8.75833 5.0875 8.425 5.2625 8.125C5.4375 7.825 5.68333 7.58333 6 7.4L11 4.525C11.3167 4.34167 11.65 4.25 12 4.25C12.35 4.25 12.6833 4.34167 13 4.525L18 7.4C18.3167 7.58333 18.5625 7.825 18.7375 8.125C18.9125 8.425 19 8.75833 19 9.125V14.875C19 15.2417 18.9125 15.575 18.7375 15.875C18.5625 16.175 18.3167 16.4167 18 16.6L13 19.475C12.6833 19.6583 12.35 19.75 12 19.75C11.65 19.75 11.3167 19.6583 11 19.475ZM11 17.175V12.575L7 10.25V14.875L11 17.175ZM13 17.175L17 14.875V10.25L13 12.575V17.175ZM3 8C2.71667 8 2.47917 7.90417 2.2875 7.7125C2.09583 7.52083 2 7.28333 2 7V4C2 3.45 2.19583 2.97917 2.5875 2.5875C2.97917 2.19583 3.45 2 4 2H7C7.28333 2 7.52083 2.09583 7.7125 2.2875C7.90417 2.47917 8 2.71667 8 3C8 3.28333 7.90417 3.52083 7.7125 3.7125C7.52083 3.90417 7.28333 4 7 4H4V7C4 7.28333 3.90417 7.52083 3.7125 7.7125C3.52083 7.90417 3.28333 8 3 8ZM4 22C3.45 22 2.97917 21.8042 2.5875 21.4125C2.19583 21.0208 2 20.55 2 20V17C2 16.7167 2.09583 16.4792 2.2875 16.2875C2.47917 16.0958 2.71667 16 3 16C3.28333 16 3.52083 16.0958 3.7125 16.2875C3.90417 16.4792 4 16.7167 4 17V20H7C7.28333 20 7.52083 20.0958 7.7125 20.2875C7.90417 20.4792 8 20.7167 8 21C8 21.2833 7.90417 21.5208 7.7125 21.7125C7.52083 21.9042 7.28333 22 7 22H4ZM20 22H17C16.7167 22 16.4792 21.9042 16.2875 21.7125C16.0958 21.5208 16 21.2833 16 21C16 20.7167 16.0958 20.4792 16.2875 20.2875C16.4792 20.0958 16.7167 20 17 20H20V17C20 16.7167 20.0958 16.4792 20.2875 16.2875C20.4792 16.0958 20.7167 16 21 16C21.2833 16 21.5208 16.0958 21.7125 16.2875C21.9042 16.4792 22 16.7167 22 17V20C22 20.55 21.8042 21.0208 21.4125 21.4125C21.0208 21.8042 20.55 22 20 22ZM20 7V4H17C16.7167 4 16.4792 3.90417 16.2875 3.7125C16.0958 3.52083 16 3.28333 16 3C16 2.71667 16.0958 2.47917 16.2875 2.2875C16.4792 2.09583 16.7167 2 17 2H20C20.55 2 21.0208 2.19583 21.4125 2.5875C21.8042 2.97917 22 3.45 22 4V7C22 7.28333 21.9042 7.52083 21.7125 7.7125C21.5208 7.90417 21.2833 8 21 8C20.7167 8 20.4792 7.90417 20.2875 7.7125C20.0958 7.52083 20 7.28333 20 7ZM12 10.85L15.95 8.525L12 6.25L8.05 8.525L12 10.85Z" fill="#858A9B"/>
</g>
</svg>
